<svg xmlns="http://www.w3.org/2000/svg" viewBox="0 0 32 32" aria-hidden="true">
  <path d="M16 2.5C10.75 2.5 6.5 6.75 6.5 12c0 6.75 9.5 16.5 9.5 16.5S25.5 18.75 25.5 12c0-5.25-4.25-9.5-9.5-9.5z" fill="#283593" stroke="#ffffff" stroke-width="1.1" stroke-linejoin="round"/>
  <path d="M15 8.5h2v8.5h-2z" fill="#3949ab" stroke="#ffffff" stroke-width="0.5"/>
  <path d="M13 17h6l-1.5 2.5H14.5L13 17z" fill="#5c6bc0" stroke="#ffffff" stroke-width="0.6" stroke-linejoin="round"/>
  <path d="M10 21.5c2 1 4 1.5 6 1.5s4-0.5 6-1.5" fill="none" stroke="#7986cb" stroke-width="1.2" stroke-linecap="round"/>
  <path d="M11.5 23.5c1.2 0.6 2.6 0.9 4.5 0.9s3.3-0.3 4.5-0.9" fill="none" stroke="#9fa8da" stroke-width="0.9" stroke-linecap="round"/>
</svg>
